<svg width="30" height="30" viewBox="0 0 30 30" fill="none" xmlns="http://www.w3.org/2000/svg">
<g clip-path="url(#clip0_7_191)">
<circle cx="15" cy="15" r="15" fill="white"/>
<g clip-path="url(#clip1_7_191)">
<path d="M18.7747 6H17.8006C15.0931 6 12.8905 8.2027 12.8905 10.9102V12.9824H11.2262C11.0549 12.9824 10.9159 13.1214 10.9159 13.2927V15.7755C10.9159 15.9469 11.0549 16.0858 11.2262 16.0858H12.8904V23.6897C12.8904 23.861 13.0293 24 13.2007 24H15.6835C15.8548 24 15.9938 23.861 15.9938 23.6897V16.0858H18.4633C18.6347 16.0858 18.7736 15.9469 18.7736 15.7755V13.2927C18.7736 13.1214 18.6347 12.9824 18.4633 12.9824H15.9938V10.9102C15.9938 9.91394 16.8043 9.10345 17.8005 9.10345H18.7746C18.9459 9.10345 19.0849 8.96448 19.0849 8.7931V6.31034C19.085 6.13897 18.9461 6 18.7747 6Z" fill="#344265"/>
</g>
</g>
<defs>
<clipPath id="clip0_7_191">
<rect width="30" height="30" fill="white"/>
</clipPath>
<clipPath id="clip1_7_191">
<rect width="18" height="18" fill="white" transform="translate(6.00171 6.00024)"/>
</clipPath>
</defs>
</svg>
