<svg width="30" height="30" viewBox="0 0 30 30" fill="none" xmlns="http://www.w3.org/2000/svg">
<g clip-path="url(#clip0_7_199)">
<circle cx="15" cy="15" r="15" fill="white"/>
<path d="M15.0027 6.00031C12.5584 6.00031 12.2516 6.01099 11.2916 6.05468C10.3335 6.09856 9.67949 6.25025 9.10724 6.47281C8.51529 6.70269 8.01316 7.01019 7.51291 7.51063C7.01228 8.01089 6.70478 8.51302 6.47415 9.10477C6.25102 9.67722 6.09914 10.3314 6.05602 11.2892C6.01308 12.2492 6.00183 12.5561 6.00183 15.0004C6.00183 17.4447 6.01271 17.7505 6.05621 18.7105C6.10027 19.6686 6.25196 20.3226 6.47434 20.8949C6.7044 21.4868 7.0119 21.989 7.51235 22.4892C8.01241 22.9899 8.51454 23.2981 9.10611 23.528C9.67874 23.7506 10.3329 23.9022 11.2909 23.9461C12.2509 23.9898 12.5575 24.0005 15.0015 24.0005C17.446 24.0005 17.7518 23.9898 18.7118 23.9461C19.67 23.9022 20.3247 23.7506 20.8974 23.528C21.4891 23.2981 21.9905 22.9899 22.4906 22.4892C22.9912 21.989 23.2987 21.4868 23.5293 20.8951C23.7506 20.3226 23.9025 19.6684 23.9475 18.7107C23.9906 17.7507 24.0018 17.4447 24.0018 15.0004C24.0018 12.5561 23.9906 12.2494 23.9475 11.2894C23.9025 10.3312 23.7506 9.67722 23.5293 9.10496C23.2987 8.51302 22.9912 8.01089 22.4906 7.51063C21.9899 7.01 21.4893 6.7025 20.8968 6.47281C20.323 6.25025 19.6687 6.09856 18.7105 6.05468C17.7505 6.01099 17.4449 6.00031 14.9999 6.00031H15.0027ZM14.1953 7.6222C14.4349 7.62182 14.7023 7.6222 15.0027 7.6222C17.4057 7.6222 17.6905 7.63082 18.6395 7.67395C19.517 7.71407 19.9932 7.8607 20.3105 7.98389C20.7305 8.14702 21.0299 8.34202 21.3447 8.65702C21.6597 8.97202 21.8547 9.27203 22.0182 9.69203C22.1414 10.0089 22.2882 10.4852 22.3282 11.3627C22.3713 12.3114 22.3807 12.5964 22.3807 14.9983C22.3807 17.4002 22.3713 17.6852 22.3282 18.634C22.2881 19.5115 22.1414 19.9878 22.0182 20.3046C21.8551 20.7246 21.6597 21.0237 21.3447 21.3385C21.0297 21.6535 20.7307 21.8485 20.3105 22.0117C19.9936 22.1354 19.517 22.2817 18.6395 22.3218C17.6907 22.3649 17.4057 22.3743 15.0027 22.3743C12.5995 22.3743 12.3146 22.3649 11.3659 22.3218C10.4884 22.2813 10.0121 22.1347 9.69468 22.0115C9.27468 21.8483 8.97467 21.6533 8.65967 21.3383C8.34467 21.0233 8.14967 20.7241 7.98616 20.3039C7.86298 19.987 7.71616 19.5108 7.67622 18.6332C7.6331 17.6845 7.62447 17.3995 7.62447 14.9961C7.62447 12.5927 7.6331 12.3092 7.67622 11.3604C7.71635 10.4829 7.86298 10.0067 7.98616 9.68941C8.14929 9.2694 8.34467 8.9694 8.65967 8.6544C8.97467 8.33939 9.27468 8.14439 9.69468 7.98089C10.0119 7.85714 10.4884 7.71089 11.3659 7.67057C12.1961 7.63307 12.5179 7.62182 14.1953 7.61995V7.6222ZM19.8068 9.11659C19.2106 9.11659 18.7268 9.59978 18.7268 10.1962C18.7268 10.7925 19.2106 11.2762 19.8068 11.2762C20.4031 11.2762 20.8869 10.7925 20.8869 10.1962C20.8869 9.59997 20.4031 9.11621 19.8068 9.11621V9.11659ZM15.0027 10.3785C12.4502 10.3785 10.3808 12.4479 10.3808 15.0004C10.3808 17.5529 12.4502 19.6214 15.0027 19.6214C17.5551 19.6214 19.6238 17.5529 19.6238 15.0004C19.6238 12.4479 17.555 10.3785 15.0025 10.3785H15.0027ZM15.0027 12.0004C16.6594 12.0004 18.0027 13.3434 18.0027 15.0004C18.0027 16.6572 16.6594 18.0004 15.0027 18.0004C13.3457 18.0004 12.0026 16.6572 12.0026 15.0004C12.0026 13.3434 13.3457 12.0004 15.0027 12.0004Z" fill="#344265"/>
</g>
<defs>
<clipPath id="clip0_7_199">
<rect width="30" height="30" fill="white"/>
</clipPath>
</defs>
</svg>
