<svg width="30" height="30" viewBox="0 0 30 30" fill="none" xmlns="http://www.w3.org/2000/svg">
<g clip-path="url(#clip0_7_195)">
<circle cx="15" cy="15" r="15" fill="white"/>
<g clip-path="url(#clip1_7_195)">
<path d="M8.03796 12.4612C8.03796 11.7053 8.19633 10.9549 8.51487 10.2116C8.8334 9.46839 9.28871 8.77733 9.8826 8.14206C10.4765 7.50679 11.2557 6.99029 12.2221 6.59437C13.1885 6.19845 14.2593 6.00049 15.4345 6.00049C17.3421 6.00049 18.9078 6.58897 20.1315 7.76414C21.3553 8.9393 21.9672 10.325 21.9672 11.9213C21.9672 13.9729 21.4489 15.6682 20.4105 17.0053C19.3721 18.3424 18.0314 19.0119 16.3883 19.0119C15.8484 19.0119 15.3409 18.8859 14.8676 18.634C14.3943 18.382 14.0614 18.0761 13.8688 17.7161L13.1489 20.5596C13.0896 20.7881 13.0104 21.0185 12.915 21.2524C12.8196 21.4864 12.7134 21.7113 12.6001 21.9273C12.4867 22.1433 12.3715 22.3466 12.2581 22.5392C12.1447 22.7317 12.0296 22.9117 11.9162 23.0791C11.8028 23.2464 11.7038 23.3886 11.6192 23.502C11.5347 23.6154 11.4573 23.7143 11.3853 23.7989L11.2773 23.9429C11.2413 23.9915 11.1927 24.0095 11.1333 23.9969C11.074 23.9843 11.038 23.9483 11.0254 23.8889C11.0254 23.8763 11.0164 23.7935 10.9984 23.637C10.9804 23.4804 10.9624 23.3166 10.9444 23.1421C10.9264 22.9675 10.9084 22.7425 10.8904 22.4672C10.8724 22.1918 10.867 21.9237 10.8724 21.6664C10.8778 21.409 10.8958 21.1229 10.9264 20.8115C10.957 20.5002 11.002 20.2122 11.0614 19.9477C11.1927 19.3844 11.6372 17.5056 12.3931 14.3148C12.2977 14.1223 12.2185 13.8919 12.1591 13.622C12.0998 13.352 12.0692 13.1325 12.0692 12.9651L12.0512 12.6951C12.0512 11.9267 12.2455 11.2878 12.636 10.7785C13.0266 10.2692 13.4963 10.0137 14.0488 10.0137C14.4933 10.0137 14.837 10.1613 15.0836 10.4546C15.3301 10.7479 15.4525 11.1169 15.4525 11.5614C15.4525 11.8367 15.4021 12.1769 15.2995 12.5782C15.1969 12.9795 15.062 13.442 14.8946 13.9639C14.7272 14.4858 14.6067 14.9087 14.5347 15.2326C14.4141 15.7725 14.5203 16.2404 14.8496 16.6364C15.1789 17.0323 15.6198 17.2302 16.1723 17.2302C17.1207 17.2302 17.9036 16.6939 18.5209 15.6196C19.1381 14.5452 19.4477 13.2476 19.4477 11.7233C19.4477 10.559 19.0698 9.60877 18.3139 8.87091C17.5581 8.13306 16.5017 7.76414 15.1465 7.76414C13.6348 7.76414 12.4075 8.25004 11.4663 9.22184C10.5251 10.1936 10.0536 11.358 10.0536 12.7131C10.0536 13.5176 10.2821 14.1942 10.7374 14.7467C10.894 14.9267 10.9408 15.1193 10.8814 15.3226C10.858 15.382 10.822 15.5206 10.7734 15.7365C10.7248 15.9525 10.6888 16.0911 10.6654 16.1505C10.642 16.2818 10.5809 16.37 10.4855 16.4114C10.3901 16.4528 10.2821 16.451 10.1615 16.4024C9.45428 16.1145 8.92339 15.6196 8.56886 14.9177C8.21433 14.2158 8.03796 13.397 8.03796 12.4612Z" fill="#344265"/>
</g>
</g>
<defs>
<clipPath id="clip0_7_195">
<rect width="30" height="30" fill="white"/>
</clipPath>
<clipPath id="clip1_7_195">
<rect width="18" height="18" fill="white" transform="translate(6.00171 6.00024)"/>
</clipPath>
</defs>
</svg>
