<svg width="30" height="30" viewBox="0 0 30 30" fill="none" xmlns="http://www.w3.org/2000/svg">
<g clip-path="url(#clip0_7_188)">
<circle cx="15" cy="15" r="15" fill="white"/>
<path d="M15.0593 8.24799C15.0657 8.248 15.0726 8.24802 15.08 8.24803L15.1596 8.24828C16.0841 8.25168 20.7699 8.28564 22.0332 8.62529C22.8077 8.83302 23.4176 9.44519 23.6246 10.2223C23.7385 10.6492 23.8179 11.2166 23.8733 11.8002L23.8841 11.9171C23.8928 12.0147 23.9008 12.1124 23.9083 12.2098L23.9169 12.3265C23.9909 13.3549 23.9995 14.3172 24.0005 14.5277L24.0006 14.5561C24.0006 14.5585 24.0006 14.5623 24.0006 14.5623V14.5782C24.0006 14.5782 24.0006 14.582 24.0006 14.5843L24.0005 14.6127C23.9994 14.8312 23.9902 15.8594 23.9083 16.9307L23.899 17.0477L23.8892 17.1648C23.8335 17.809 23.7499 18.4486 23.6246 18.9182C23.4176 19.6953 22.8077 20.3076 22.0332 20.5152C20.7278 20.8663 15.7679 20.8909 15.08 20.8926L15.027 20.8927C15.0226 20.8927 15.0188 20.8927 15.0155 20.8927L14.9939 20.8927C14.9939 20.8927 14.9889 20.8927 14.9857 20.8927L14.9212 20.8926C14.5736 20.8917 13.1348 20.885 11.6282 20.8333L11.4355 20.8264C11.4034 20.8252 11.3712 20.824 11.3391 20.8228L11.1462 20.8152L10.9538 20.807C9.70563 20.7522 8.51555 20.6624 7.96809 20.5152C7.19361 20.3076 6.58375 19.6953 6.37676 18.9182C6.25136 18.4486 6.16776 17.809 6.11203 17.1648L6.1022 17.0477L6.09297 16.9307C6.01398 15.8983 6.00251 14.9061 6.00084 14.6398L6.00065 14.6016C6.00063 14.5982 6.00062 14.595 6.00061 14.5922V14.5483C6.00062 14.5454 6.00063 14.5423 6.00065 14.5388L6.00084 14.5007C6.00235 14.2595 6.0119 13.4229 6.07236 12.5004L6.08019 12.3846C6.08154 12.3653 6.08291 12.3459 6.08431 12.3265L6.09297 12.2098C6.10042 12.1124 6.10847 12.0147 6.11717 11.9171L6.12793 11.8002C6.18331 11.2166 6.26276 10.6492 6.37676 10.2223C6.58375 9.44519 7.19361 8.83302 7.96809 8.62529C8.51555 8.47811 9.70563 8.38833 10.9538 8.33356L11.1462 8.32541L11.3391 8.31779C11.3712 8.31657 11.4034 8.31536 11.4355 8.31418L11.6282 8.30733C13.0387 8.25891 14.3896 8.24994 14.8416 8.24828L14.9212 8.24803C14.9286 8.24802 14.9355 8.248 14.9419 8.24799H15.0593ZM13.2006 11.8606V17.2799L17.877 14.5704L13.2006 11.8606Z" fill="#344265"/>
</g>
<defs>
<clipPath id="clip0_7_188">
<rect width="30" height="30" fill="white"/>
</clipPath>
</defs>
</svg>
